<svg xmlns="http://www.w3.org/2000/svg" width="14.064" height="14.509" viewBox="0 0 14.064 14.509">
    <path id="Tracé_13" data-name="Tracé 13" d="M89.151,129.437l-4.134-2.185,1.383-2.617.283-.531a1.03,1.03,0,0,0,.028-.916l1.784-1.089.035-.024.291.346a.59.59,0,0,0,.979-.114h0a.827.827,0,0,0,.153-1.093l.971-.593a.283.283,0,0,0,.106-.377.274.274,0,0,0-.381-.1l-1.018.621-.035.024-2.747-3.274-.605-.766a1.4,1.4,0,0,0-2.315.169L81.916,120.4h0a1.59,1.59,0,0,0,.633,2.2l1.045.55,1.136.6-2.94,1.792L77.923,123.5a.6.6,0,0,0-.81.252h0a.6.6,0,0,0,.252.81l3.234,1.71-1.635,1-.232-.287a.284.284,0,0,0-.389-.055.274.274,0,0,0-.047.393l.193.24-.542.33a.283.283,0,0,0-.106.377.274.274,0,0,0,.24.138.266.266,0,0,0,.141-.039l.613-.373.252.31a.276.276,0,0,0,.212.1.286.286,0,0,0,.181-.067.282.282,0,0,0,.028-.389l-.2-.244,1.851-1.128,7.428,3.926a1.732,1.732,0,0,0,2.519-1.281C90.641,130.149,89.151,129.437,89.151,129.437Zm-2.9-6.744-.531-.283-1.3-.684,1.552-2.692,2.2,2.621-1.816,1.1A1.026,1.026,0,0,0,86.247,122.694Zm-3.891,3.152,2.279-1.387-1.073,2.028Z" transform="translate(-77.045 -116.218)" fill="#f16f3c"/>
  </svg>
  