<svg id="lightbulb-line" xmlns="http://www.w3.org/2000/svg" width="15" height="20" viewBox="0 0 15 20">
    <path id="Tracé_2823" data-name="Tracé 2823" d="M14.5,2.25A7.269,7.269,0,0,0,7,9.265a6.441,6.441,0,0,0,.682,2.953,10.358,10.358,0,0,0,.764,1.135,10.689,10.689,0,0,1,1.364,2.213,9.706,9.706,0,0,1,.4,2.551h1.364a10.9,10.9,0,0,0-.484-2.991,11.592,11.592,0,0,0-1.514-2.5,10.024,10.024,0,0,1-.682-.982,5.208,5.208,0,0,1-.532-2.391,5.971,5.971,0,0,1,6.16-5.762,5.971,5.971,0,0,1,6.16,5.762,5.217,5.217,0,0,1-.586,2.4,10.024,10.024,0,0,1-.682.982,11.593,11.593,0,0,0-1.507,2.487,10.9,10.9,0,0,0-.484,3h1.364a9.706,9.706,0,0,1,.4-2.551,10.689,10.689,0,0,1,1.364-2.213,10.308,10.308,0,0,0,.764-1.161A6.441,6.441,0,0,0,22,9.252a7.27,7.27,0,0,0-7.5-7Z" transform="translate(-6.999 -2.25)" fill="#f16f3c"/>
    <path id="Tracé_2824" data-name="Tracé 2824" d="M17.079,15.422a.5.5,0,0,0-.706,0L14.5,17.3l1.786,1.955v3.46H17.31V18.851l-1.4-1.53,1.18-1.18a.5.5,0,0,0-.012-.718Z" transform="translate(-9.276 -6.923)" fill="#f16f3c"/>
    <path id="Tracé_2825" data-name="Tracé 2825" d="M20.332,29.15H11.885a.5.5,0,1,0,0,1h8.447a.5.5,0,1,0,0-1Z" transform="translate(-8.618 -12.023)" fill="#f16f3c"/>
    <path id="Tracé_2826" data-name="Tracé 2826" d="M18.7,32.15h-5a.5.5,0,1,0,0,1h5a.5.5,0,0,0,0-1Z" transform="translate(-8.697 -13.149)" fill="#f16f3c"/>
    <path id="Tracé_2827" data-name="Tracé 2827" d="M16.217,10.784l-1.7,1.7a.5.5,0,0,0,.706.706l1.7-1.717a.5.5,0,1,0-.706-.706Z" transform="translate(-9.245 -5.287)" fill="#f16f3c"/>
  </svg>
  