<?xml version="1.0" encoding="utf-8"?>
<svg width="52px" height="52px" viewBox="0 0 52 52" version="1.1" xmlns:xlink="http://www.w3.org/1999/xlink" xmlns="http://www.w3.org/2000/svg">
  <defs>
    <filter filterUnits="userSpaceOnUse" color-interpolation-filters="sRGB" id="filter_1">
      <feFlood flood-opacity="0" result="BackgroundImageFix" />
      <feColorMatrix in="SourceAlpha" type="matrix" values="0 0 0 0 0 0 0 0 0 0 0 0 0 0 0 0 0 0 127 0" />
      <feOffset dx="0" dy="3" />
      <feGaussianBlur stdDeviation="1.5" />
      <feColorMatrix type="matrix" values="0 0 0 0 0.39215687 0 0 0 0 0.39215687 0 0 0 0 0.39215687 0 0 0 0.05882353 0" />
      <feBlend mode="normal" in2="BackgroundImageFix" result="effect0_dropShadow" />
      <feBlend mode="normal" in="SourceGraphic" in2="effect0_dropShadow" result="shape" />
    </filter>
  </defs>
  <g id="Group-2">
    <path d="M3.74172 2.77556e-17L3.51316 0.210079Q3.32797 0.380309 3.15084 0.558925Q2.97372 0.737541 2.80505 0.924161Q2.63638 1.11078 2.47653 1.30501Q2.31667 1.49923 2.16598 1.70064Q2.01528 1.90206 1.87407 2.11023Q1.73285 2.3184 1.60142 2.53288Q1.46999 2.74736 1.34862 2.96769Q1.22725 3.18802 1.11621 3.41373Q1.00517 3.63944 0.904686 3.87005Q0.804206 4.10066 0.714503 4.33567Q0.624801 4.57068 0.546068 4.80959Q0.467335 5.0485 0.399741 5.2908Q0.332147 5.53309 0.275836 5.77826Q0.219525 6.02342 0.174618 6.27093Q0.129711 6.51843 0.0963042 6.76775Q0.0628973 7.01707 0.0410621 7.26767Q0.0192268 7.51827 0.00901004 7.76961Q-0.00120675 8.02095 0.000216769 8.27249Q0.00164029 8.52404 0.0147011 8.77525Q0.0277619 9.02645 0.052432 9.27679Q0.077102 9.52712 0.113329 9.77605Q0.149555 10.025 0.197261 10.272Q0.244966 10.5189 0.304048 10.7635Q0.36313 11.008 0.433462 11.2495Q0.503794 11.491 0.585226 11.729Q0.666658 11.967 0.759014 12.201Q0.851371 12.435 0.954455 12.6644Q1.05754 12.8939 1.17113 13.1183Q1.28472 13.3428 1.40857 13.5617Q1.53243 13.7806 1.66628 13.9936Q1.80013 14.2066 1.94369 14.4132Q2.08725 14.6197 2.24022 14.8194L2.24144 14.821Q2.52824 15.1954 2.85229 15.5381Q3.17634 15.8808 3.53414 16.1881Q3.89194 16.4954 4.27965 16.7639Q4.66736 17.0325 5.0808 17.2594Q5.49425 17.4864 5.92898 17.6693Q6.36371 17.8522 6.81505 17.9891Q7.26639 18.126 7.72948 18.2154Q8.19257 18.3048 8.66243 18.3457Q9.13229 18.3866 9.60386 18.3787Q10.0754 18.3707 10.5436 18.314Q11.0119 18.2572 11.4717 18.1522Q11.9315 18.0473 12.3779 17.8953Q12.8244 17.7432 13.2527 17.5458Q13.681 17.3483 14.0866 17.1075Q14.4921 16.8668 14.8706 16.5853Q15.249 16.3038 15.5962 15.9846L32.9355 0.0468669Q32.2521 0 31.5671 0L3.74172 0L3.74172 2.77556e-17ZM38.5241 1.24904L3.56026 33.3869Q3.37507 33.5571 3.19794 33.7357Q3.02082 33.9143 2.85215 34.1009Q2.68348 34.2876 2.52363 34.4818Q2.36378 34.676 2.21308 34.8774Q2.06238 35.0788 1.92117 35.287Q1.77995 35.4952 1.64852 35.7097Q1.51709 35.9241 1.39572 36.1445Q1.27436 36.3648 1.16331 36.5905Q1.05227 36.8162 0.95179 37.0468Q0.851309 37.2774 0.761607 37.5125Q0.671905 37.7475 0.593172 37.9864Q0.514439 38.2253 0.446845 38.4676Q0.379251 38.7099 0.32294 38.955Q0.26663 39.2002 0.221723 39.4477Q0.176816 39.6952 0.143409 39.9445Q0.110002 40.1938 0.0881673 40.4444Q0.0663322 40.695 0.0561155 40.9464Q0.0458988 41.1977 0.0473225 41.4493Q0.0487461 41.7008 0.061807 41.952Q0.0748679 42.2032 0.0995381 42.4536Q0.124208 42.7039 0.160435 42.9528Q0.196662 43.2018 0.244367 43.4487Q0.292072 43.6957 0.351155 43.9402Q0.410237 44.1847 0.480569 44.4263Q0.550901 44.6678 0.632333 44.9058Q0.713765 45.1438 0.806121 45.3778Q0.898478 45.6117 1.00156 45.8412Q1.10465 46.0706 1.21824 46.2951Q1.33183 46.5195 1.45568 46.7385Q1.57953 46.9574 1.71338 47.1704Q1.84724 47.3834 1.9908 47.5899Q2.13436 47.7965 2.28733 47.9962L2.28855 47.9978Q2.57535 48.3722 2.8994 48.7149Q3.22344 49.0576 3.58125 49.3649Q3.93905 49.6721 4.32676 49.9407Q4.71447 50.2093 5.12791 50.4362Q5.54136 50.6632 5.97609 50.8461Q6.41082 51.029 6.86215 51.1658Q7.31349 51.3027 7.77658 51.3921Q8.23967 51.4815 8.70953 51.5224Q9.17939 51.5634 9.65096 51.5554Q10.1225 51.5475 10.5907 51.4907Q11.059 51.434 11.5188 51.329Q11.9786 51.224 12.425 51.072Q12.8715 50.92 13.2998 50.7225Q13.7281 50.5251 14.1337 50.2843Q14.5393 50.0435 14.9177 49.7621Q15.2961 49.4806 15.6434 49.1614L51.2462 16.4361Q51.1308 15.7986 50.9743 15.1698Q50.8178 14.541 50.621 13.9237Q50.4242 13.3064 50.1878 12.7031Q49.9514 12.0998 49.6765 11.5131Q49.4015 10.9264 49.0892 10.3587Q48.7769 9.79098 48.4285 9.2447Q48.08 8.69841 47.697 8.17583Q47.3139 7.65324 46.8978 7.15654Q46.4818 6.65985 46.0344 6.19113Q45.587 5.7224 45.1103 5.28362Q44.6335 4.84484 44.1294 4.43784Q43.6252 4.03084 43.0958 3.65733Q42.5663 3.28381 42.0138 2.94536Q41.4613 2.6069 40.888 2.30491Q40.3147 2.00293 39.7231 1.73868Q39.1315 1.47444 38.5241 1.24904ZM51.5661 22.2394L39.4385 33.3868Q39.2533 33.5571 39.0761 33.7357Q38.899 33.9143 38.7304 34.1009Q38.5617 34.2875 38.4018 34.4818Q38.242 34.676 38.0913 34.8774Q37.9406 35.0788 37.7994 35.287Q37.6582 35.4952 37.5267 35.7096Q37.3953 35.9241 37.2739 36.1444Q37.1526 36.3648 37.0415 36.5905Q36.9305 36.8162 36.83 37.0468Q36.7295 37.2774 36.6398 37.5124Q36.5501 37.7474 36.4714 37.9864Q36.3926 38.2253 36.325 38.4676Q36.2575 38.7099 36.2011 38.955Q36.1448 39.2002 36.0999 39.4477Q36.055 39.6952 36.0216 39.9445Q35.9882 40.1938 35.9664 40.4444Q35.9445 40.695 35.9343 40.9464Q35.9241 41.1977 35.9255 41.4493Q35.927 41.7008 35.94 41.952Q35.9531 42.2032 35.9777 42.4535Q36.0024 42.7039 36.0386 42.9528Q36.0749 43.2017 36.1226 43.4487Q36.1703 43.6957 36.2294 43.9402Q36.2884 44.1847 36.3588 44.4262Q36.4291 44.6678 36.5105 44.9058Q36.592 45.1438 36.6843 45.3777Q36.7767 45.6117 36.8798 45.8412Q36.9828 46.0706 37.0964 46.2951Q37.21 46.5195 37.3339 46.7385Q37.4577 46.9574 37.5916 47.1704Q37.7254 47.3834 37.869 47.5899Q38.0126 47.7965 38.1655 47.9962L38.1667 47.9978Q38.4535 48.3722 38.7776 48.7149Q39.1016 49.0576 39.4594 49.3648Q39.8172 49.6721 40.2049 49.9407Q40.5927 50.2093 41.0061 50.4362Q41.4195 50.6632 41.8543 50.8461Q42.289 51.029 42.7403 51.1658Q43.1917 51.3027 43.6548 51.3921Q44.1179 51.4815 44.5877 51.5225Q45.0576 51.5634 45.5291 51.5554Q46.0007 51.5475 46.4689 51.4907Q46.9371 51.434 47.397 51.329Q47.8568 51.2241 48.3032 51.072Q48.7497 50.92 49.178 50.7225Q49.6063 50.5251 50.0119 50.2843Q50.4174 50.0435 50.7959 49.7621Q51.1743 49.4806 51.5215 49.1614L51.5661 49.1204L51.5661 22.2394Z" id="Group-Intersect" fill="#2961AE" fill-rule="evenodd" stroke="none" filter="url(#filter_1)" />
  </g>
</svg>