<?xml version="1.0" encoding="utf-8"?>
<svg width="48px" height="46px" viewBox="0 0 48 46" version="1.1" xmlns:xlink="http://www.w3.org/1999/xlink" xmlns="http://www.w3.org/2000/svg">
  <defs>
    <linearGradient x1="0" y1="1.0000002" x2="0.92143846" y2="0.09938591" id="gradient_1">
      <stop offset="0%" stop-color="#F27839" />
      <stop offset="100%" stop-color="#FFFFFF" />
    </linearGradient>
  </defs>
  <g id="Group-2">
    <path d="M47.5661 20.3163L47.5661 45.6889Q46.0964 46.0541 44.5878 45.9226Q44.1179 45.8817 43.6548 45.7923Q43.1917 45.7029 42.7404 45.566Q42.2891 45.4291 41.8543 45.2462Q41.4196 45.0633 41.0062 44.8363Q40.5927 44.6094 40.205 44.3408Q39.8173 44.0723 39.4595 43.765Q39.1017 43.4577 38.7777 43.115Q38.4536 42.7723 38.1668 42.3979L38.1656 42.3963Q38.0126 42.1966 37.8691 41.9901Q37.7255 41.7835 37.5916 41.5705Q37.4578 41.3575 37.3339 41.1386Q37.2101 40.9197 37.0965 40.6952Q36.9829 40.4708 36.8798 40.2413Q36.7767 40.0119 36.6844 39.7779Q36.592 39.5439 36.5106 39.3059Q36.4292 39.0679 36.3588 38.8264Q36.2885 38.5849 36.2294 38.3404Q36.1703 38.0958 36.1226 37.8489Q36.0749 37.6019 36.0387 37.353Q36.0025 37.104 35.9778 36.8537Q35.9531 36.6034 35.9401 36.3521Q35.927 36.1009 35.9256 35.8494Q35.9242 35.5979 35.9344 35.3465Q35.9446 35.0952 35.9664 34.8446Q35.9883 34.594 36.0217 34.3447Q36.0551 34.0953 36.1 33.8478Q36.1449 33.6003 36.2012 33.3552Q36.2575 33.11 36.3251 32.8677Q36.3927 32.6254 36.4714 32.3865Q36.5502 32.1476 36.6399 31.9126Q36.7296 31.6776 36.8301 31.447Q36.9305 31.2164 37.0416 30.9906Q37.1526 30.7649 37.274 30.5446Q37.3954 30.3243 37.5268 30.1098Q37.6582 29.8953 37.7994 29.6871Q37.9406 29.479 38.0913 29.2776Q38.242 29.0761 38.4019 28.8819Q38.5617 28.6877 38.7304 28.5011Q38.8991 28.3145 39.0762 28.1358Q39.2533 27.9572 39.4385 27.787L47.5661 20.3163ZM32.979 0.74616Q33.6024 0.921415 34.2133 1.13664Q34.8241 1.35187 35.4197 1.60616Q36.0153 1.86045 36.5933 2.15275Q37.1712 2.44505 37.729 2.77413Q38.2868 3.1032 38.8221 3.46768Q39.3575 3.83215 39.8681 4.2305Q40.3787 4.62885 40.8625 5.0594Q41.3463 5.48996 41.8013 5.95091Q42.2562 6.41186 42.6803 6.90128Q43.1045 7.39069 43.4961 7.90653Q43.8877 8.42236 44.2451 8.96245Q44.6025 9.50254 44.9242 10.0646Q45.2459 10.6267 45.5306 11.2084Q45.8152 11.7901 46.0617 12.3891Q46.3081 12.988 46.5153 13.6016Q46.7225 14.2152 46.8895 14.8409L15.6434 43.5615Q15.2962 43.8807 14.9178 44.1622Q14.5393 44.4437 14.1338 44.6844Q13.7282 44.9252 13.2999 45.1227Q12.8716 45.3201 12.4251 45.4722Q11.9787 45.6242 11.5188 45.7291Q11.059 45.8341 10.5908 45.8909Q10.1226 45.9476 9.65103 45.9556Q9.17946 45.9635 8.7096 45.9226Q8.23974 45.8817 7.77665 45.7923Q7.31356 45.7029 6.86223 45.566Q6.41089 45.4291 5.97616 45.2462Q5.54143 45.0633 5.12798 44.8363Q4.71454 44.6094 4.32683 44.3408Q3.93912 44.0723 3.58132 43.765Q3.22352 43.4577 2.89947 43.115Q2.57542 42.7723 2.28862 42.3979L2.2874 42.3963Q2.13443 42.1966 1.99087 41.9901Q1.84731 41.7835 1.71346 41.5705Q1.5796 41.3576 1.45575 41.1386Q1.3319 40.9197 1.21831 40.6952Q1.10472 40.4708 1.00163 40.2413Q0.898549 40.0119 0.806193 39.7779Q0.713836 39.5439 0.632404 39.3059Q0.550972 39.0679 0.48064 38.8264Q0.410308 38.5849 0.351226 38.3404Q0.292144 38.0959 0.244438 37.8489Q0.196733 37.6019 0.160506 37.353Q0.12428 37.104 0.0996094 36.8537Q0.0749392 36.6034 0.0618783 36.3522Q0.0488174 36.101 0.0473938 35.8494Q0.0459702 35.5979 0.0561869 35.3465Q0.0664035 35.0952 0.0882387 34.8446Q0.110074 34.594 0.143481 34.3447Q0.176887 34.0954 0.221794 33.8479Q0.266701 33.6003 0.323012 33.3552Q0.379323 33.11 0.446917 32.8677Q0.514511 32.6254 0.593243 32.3865Q0.671976 32.1476 0.761679 31.9126Q0.851381 31.6776 0.951861 31.447Q1.05234 31.2164 1.16338 30.9907Q1.27443 30.7649 1.39579 30.5446Q1.51716 30.3243 1.64859 30.1098Q1.78003 29.8953 1.92124 29.6871Q2.06246 29.479 2.21315 29.2776Q2.36385 29.0762 2.5237 28.8819Q2.68355 28.6877 2.85222 28.5011Q3.02089 28.3145 3.19801 28.1358Q3.37514 27.9572 3.56034 27.787L32.979 0.74616ZM26.8948 0L15.5963 10.3853Q15.2491 10.7044 14.8706 10.9859Q14.4922 11.2674 14.0866 11.5082Q13.6811 11.7489 13.2528 11.9464Q12.8245 12.1439 12.378 12.2959Q11.9315 12.4479 11.4717 12.5529Q11.0119 12.6578 10.5437 12.7146Q10.0755 12.7714 9.6039 12.7793Q9.13233 12.7873 8.66247 12.7463Q8.19261 12.7054 7.72952 12.616Q7.26643 12.5266 6.81509 12.3897Q6.36375 12.2528 5.92902 12.0699Q5.49429 11.887 5.08085 11.6601Q4.6674 11.4331 4.2797 11.1646Q3.89199 10.896 3.53418 10.5887Q3.17638 10.2814 2.85233 9.93875Q2.52829 9.59606 2.24148 9.22164L2.24026 9.22005Q1.86966 8.73623 1.55547 8.214Q1.24128 7.69178 0.987456 7.1377Q0.73363 6.58362 0.543347 6.00463Q0.353064 5.42565 0.228711 4.82902Q0.104357 4.23239 0.0474933 3.62559Q-0.00937078 3.0188 0.00196747 2.40945Q0.0133057 1.80011 0.0927041 1.19585Q0.172102 0.591591 0.318565 6.095e-15L26.8948 0Z" id="Group-Intersect" fill="url(#gradient_1)" fill-opacity="0.47" fill-rule="evenodd" stroke="none" />
  </g>
</svg>