<svg xmlns="http://www.w3.org/2000/svg" width="38.655" height="38.655" viewBox="0 0 38.655 38.655">
    <path id="ember-dot-js" d="M0,0V38.655H38.655V0ZM19.795,7.055a6.588,6.588,0,0,1,6.185,2.98c3.624,8.987-9.664,13.529-9.664,13.529s-.37,2.384,3.253,2.287c4.478,0,9.181-3.463,10.968-4.929a1.063,1.063,0,0,1,1.45.081l1.353,1.4a1.063,1.063,0,0,1,.016,1.45,23.062,23.062,0,0,1-8,5.686s-6.861,3.173-11.484.161a7.973,7.973,0,0,1-3.833-6.169,22.026,22.026,0,0,1-5.508-1.015c-2.142-.838.016-3.382.016-3.382s.676-1.047,1.933,0,3.608.58,3.608.58a21.517,21.517,0,0,1,1.578-6.137c2.158-4.832,5.444-6.459,8.134-6.523Zm.532,4.51c-1.772.113-4.51,2.867-4.639,7.94,0,0,1.208.37,3.882-1.466,2.69-1.836,3.221-4.784,1.788-6.137a1.321,1.321,0,0,0-1.031-.338Z" fill="#275ba7"/>
  </svg>
  