<svg xmlns="http://www.w3.org/2000/svg" width="35.999" height="35.997" viewBox="0 0 35.999 35.997">
    <g id="question-diamond-fill" transform="translate(-3.002 70)">
      <path id="Tracé_2883" data-name="Tracé 2883" d="M20.363.979a3.341,3.341,0,0,0-4.725,0L.981,15.638a3.335,3.335,0,0,0,0,4.72L15.642,35.019a3.335,3.335,0,0,0,4.72,0L35.023,20.358a3.335,3.335,0,0,0,0-4.72Zm-5.58,12.6h-2.97c-.068-4.243,3.217-5.7,6.2-5.7,3.143,0,6.014,1.643,6.014,5.04,0,2.43-1.429,3.587-2.8,4.628-1.658,1.258-2.272,1.728-2.272,3.344v.8H16.013L16,20.644c-.085-2.086,1.114-3.37,2.628-4.471,1.327-1,2.171-1.656,2.171-3.085,0-1.856-1.413-2.628-2.957-2.628a2.871,2.871,0,0,0-3.056,3.114Zm2.815,14.5a2.107,2.107,0,1,1,0-4.2,2.11,2.11,0,1,1,0,4.2Z" transform="translate(3 -70)" fill="#f16f3c" fill-rule="evenodd"/>
    </g>
  </svg>
  