<svg xmlns="http://www.w3.org/2000/svg" width="27" height="31.125" viewBox="0 0 27 31.125">
  <g id="calendar" transform="translate(-3 -1.25)">
    <path id="Tracé_2951" data-name="Tracé 2951" d="M23.606,4.715V2.375a1.125,1.125,0,0,0-2.25,0v2.25h-9.75V2.375a1.125,1.125,0,0,0-2.25,0v2.34c-4.05.375-6.015,2.79-6.315,6.375a.754.754,0,0,0,.75.8h25.38a.744.744,0,0,0,.75-.8C29.621,7.505,27.656,5.09,23.606,4.715Z" transform="translate(0.02)" fill="#92acd2"/>
    <path id="Tracé_2952" data-name="Tracé 2952" d="M28.5,9.84H4.5A1.5,1.5,0,0,0,3,11.34v9.24c0,4.5,2.25,7.5,7.5,7.5h12c5.25,0,7.5-3,7.5-7.5V11.34A1.5,1.5,0,0,0,28.5,9.84ZM12.315,22.395a2.364,2.364,0,0,1-.225.18,1.136,1.136,0,0,1-.27.135.953.953,0,0,1-.27.09,2.033,2.033,0,0,1-.3.03,1.493,1.493,0,0,1-.57-.12,1.548,1.548,0,0,1-.5-.315,1.521,1.521,0,0,1,0-2.13,1.549,1.549,0,0,1,.5-.315,1.434,1.434,0,0,1,.87-.09.953.953,0,0,1,.27.09,1.136,1.136,0,0,1,.27.135l.225.18a1.521,1.521,0,0,1,0,2.13Zm0-5.25a1.506,1.506,0,0,1-2.13-2.13A1.5,1.5,0,0,1,11.82,14.7a1.4,1.4,0,0,1,.5.315,1.521,1.521,0,0,1,0,2.13Zm5.25,5.25A1.521,1.521,0,1,1,18,21.33,1.577,1.577,0,0,1,17.565,22.395Zm0-5.25-.225.18a1.136,1.136,0,0,1-.27.135.953.953,0,0,1-.27.09,2.033,2.033,0,0,1-.3.03,1.506,1.506,0,0,1-1.065-2.565,1.4,1.4,0,0,1,.5-.315,1.5,1.5,0,0,1,1.635.315,1.521,1.521,0,0,1,0,2.13Zm5.25,5.25a1.521,1.521,0,1,1,.435-1.065A1.577,1.577,0,0,1,22.815,22.395Zm0-5.25-.225.18a1.136,1.136,0,0,1-.27.135.953.953,0,0,1-.27.09,2.254,2.254,0,0,1-.3.03,1.506,1.506,0,0,1-1.065-2.565,1.548,1.548,0,0,1,.5-.315,1.434,1.434,0,0,1,.87-.09.953.953,0,0,1,.27.09,1.136,1.136,0,0,1,.27.135l.225.18a1.521,1.521,0,0,1,0,2.13Z" transform="translate(0 4.295)" fill="#92acd2"/>
  </g>
</svg>
