<svg xmlns="http://www.w3.org/2000/svg" width="27.465" height="19.975" viewBox="0 0 27.465 19.975">
    <g id="Iconly_Bold_3-User" data-name="Iconly/Bold/3-User" transform="translate(-1 -4)">
      <g id="_3-User" data-name="3-User" transform="translate(1 4)">
        <path id="_3-Friends" data-name="3-Friends" d="M13.669,13.158c4.284,0,7.941.679,7.941,3.4s-3.634,3.42-7.941,3.42c-4.283,0-7.941-.679-7.941-3.4S9.362,13.158,13.669,13.158Zm6.849-1.636a19.418,19.418,0,0,1,4.049.354,3.442,3.442,0,0,1,2.66,1.628,2.4,2.4,0,0,1,0,2.085c-.575,1.247-2.427,1.647-3.147,1.751a.226.226,0,0,1-.253-.256c.368-3.455-2.558-5.093-3.314-5.47a.056.056,0,0,1-.036-.058A.047.047,0,0,1,20.518,11.521Zm-13.878,0,.308,0a.046.046,0,0,1,.039.031.058.058,0,0,1-.035.06c-.758.377-3.683,2.015-3.315,5.469a.226.226,0,0,1-.252.258c-.72-.1-2.572-.5-3.147-1.751a2.393,2.393,0,0,1,0-2.084A3.444,3.444,0,0,1,2.9,11.875a19.527,19.527,0,0,1,4.05-.353ZM13.669,0a5.25,5.25,0,0,1,5.255,5.284,5.255,5.255,0,1,1-10.51,0A5.25,5.25,0,0,1,13.669,0ZM20.8.881a4.464,4.464,0,0,1,4.276,5.635,4.386,4.386,0,0,1-4.4,3.273,4.24,4.24,0,0,1-.6-.058.2.2,0,0,1-.133-.3,7.293,7.293,0,0,0-.1-8.255.129.129,0,0,1-.02-.137.161.161,0,0,1,.1-.062A4.377,4.377,0,0,1,20.8.881ZM6.661.881a4.4,4.4,0,0,1,.885.091.169.169,0,0,1,.1.062.131.131,0,0,1-.02.137,7.293,7.293,0,0,0-.105,8.255.2.2,0,0,1-.133.3,4.1,4.1,0,0,1-.6.058,4.386,4.386,0,0,1-4.4-3.273A4.463,4.463,0,0,1,6.661.881Z" transform="translate(0 0)" fill="#92acd2"/>
      </g>
    </g>
  </svg>
  