<svg xmlns="http://www.w3.org/2000/svg" width="34.085" height="24.789" viewBox="0 0 34.085 24.789">
    <g id="Iconly_Bold_3-User" data-name="Iconly/Bold/3-User" transform="translate(-1 -4)">
      <g id="_3-User" data-name="3-User" transform="translate(1 4)">
        <path id="_3-Friends" data-name="3-Friends" d="M16.963,16.329c5.316,0,9.855.843,9.855,4.215s-4.51,4.245-9.855,4.245c-5.316,0-9.855-.843-9.855-4.214S11.618,16.329,16.963,16.329Zm8.5-2.031a24.1,24.1,0,0,1,5.025.44c1.711.336,2.836,1.023,3.3,2.02a2.979,2.979,0,0,1,0,2.587c-.713,1.547-3.012,2.044-3.905,2.172a.28.28,0,0,1-.313-.318c.456-4.288-3.174-6.321-4.113-6.788a.07.07,0,0,1-.044-.073A.058.058,0,0,1,25.463,14.3ZM8.24,14.3l.383,0a.057.057,0,0,1,.049.039.072.072,0,0,1-.043.074c-.941.467-4.571,2.5-4.115,6.787a.281.281,0,0,1-.312.32C3.308,21.39,1.01,20.893.3,19.346a2.969,2.969,0,0,1,0-2.587c.466-1,1.59-1.684,3.3-2.022A24.234,24.234,0,0,1,8.623,14.3ZM16.963,0a6.516,6.516,0,0,1,6.522,6.558,6.522,6.522,0,1,1-13.043,0A6.516,6.516,0,0,1,16.963,0Zm8.853,1.094a5.54,5.54,0,0,1,5.306,6.993,5.443,5.443,0,0,1-5.462,4.062,5.262,5.262,0,0,1-.749-.073.246.246,0,0,1-.165-.378,9.051,9.051,0,0,0-.13-10.244.16.16,0,0,1-.025-.17.2.2,0,0,1,.128-.077A5.432,5.432,0,0,1,25.817,1.094Zm-17.55,0a5.455,5.455,0,0,1,1.1.113.21.21,0,0,1,.128.077.163.163,0,0,1-.025.17A9.051,9.051,0,0,0,9.338,11.7a.245.245,0,0,1-.165.378,5.084,5.084,0,0,1-.749.073A5.443,5.443,0,0,1,2.962,8.087,5.538,5.538,0,0,1,8.267,1.094Z" transform="translate(0 0)" fill="#92acd2"/>
      </g>
    </g>
  </svg>
  