<svg xmlns="http://www.w3.org/2000/svg" xmlns:xlink="http://www.w3.org/1999/xlink" width="31.302" height="32.039" viewBox="0 0 31.302 32.039">
    <defs>
      <linearGradient id="linear-gradient" x1="0.5" x2="0.5" y2="1" gradientUnits="objectBoundingBox">
        <stop offset="0" stop-color="#7aaffc"/>
        <stop offset="1" stop-color="#195fc5"/>
      </linearGradient>
    </defs>
    <g id="Affiliate" transform="translate(8846 11020.682)">
      <circle id="Ellipse_87" data-name="Ellipse 87" cx="15.373" cy="15.373" r="15.373" transform="translate(-8846 -11019.389)" fill="url(#linear-gradient)"/>
      <g id="Iconly_Bold_Profile" data-name="Iconly/Bold/Profile" transform="translate(-8834.038 -11009.014)">
        <g id="Profile" transform="translate(0 0)">
          <path id="Tracé_2894" data-name="Tracé 2894" d="M3.725,6.133c2.02,0,3.725.328,3.725,1.595S5.733,9.312,3.725,9.312,0,8.983,0,7.717,1.716,6.133,3.725,6.133ZM3.725,0A2.464,2.464,0,1,1,1.26,2.463,2.455,2.455,0,0,1,3.725,0Z" transform="translate(0 0)" fill="#fff"/>
        </g>
      </g>
      <path id="Icon_ionic-ios-refresh" data-name="Icon ionic-ios-refresh" d="M21.1,12.918a.853.853,0,0,0-.852.778,9.282,9.282,0,1,1-9.491-10,.224.224,0,0,1,.234.229v.959a.917.917,0,0,0,1.406.772l3.046-1.931a.914.914,0,0,0,0-1.549L12.4.142a.917.917,0,0,0-1.406.772v.849a.225.225,0,0,1-.223.229A10.931,10.931,0,1,0,21.949,13.838a.85.85,0,0,0-.852-.92Z" transform="matrix(0.883, 0.469, -0.469, 0.883, -8834.081, -11020.682)" fill="#fff"/>
      <g id="Iconly_Bold_Profile-2" data-name="Iconly/Bold/Profile" transform="translate(-8824.623 -11008.486)">
        <g id="Profile-2" data-name="Profile" transform="translate(0 0)">
          <path id="Tracé_2894-2" data-name="Tracé 2894" d="M2.792,4.6c1.514,0,2.792.246,2.792,1.2S4.3,6.979,2.792,6.979,0,6.733,0,5.784,1.286,4.6,2.792,4.6Zm0-4.6A1.846,1.846,0,1,1,.944,1.846,1.84,1.84,0,0,1,2.792,0Z" transform="translate(0 0)" fill="#fff"/>
        </g>
      </g>
    </g>
  </svg>
  