<svg xmlns="http://www.w3.org/2000/svg" xmlns:xlink="http://www.w3.org/1999/xlink" width="657" height="425" viewBox="0 0 657 425">
  <defs>
    <linearGradient id="linear-gradient" x1="0.5" x2="0.5" y2="1" gradientUnits="objectBoundingBox">
      <stop offset="0" stop-color="#7aaffc"/>
      <stop offset="1" stop-color="#3b6094"/>
    </linearGradient>
  </defs>
  <g id="Groupe_271" data-name="Groupe 271" transform="translate(1 -2)">
    <rect id="_619192-covid-une-station-de-ski-fait-une-simulation-pour-montrer-l-efficacite-de-son-pr" data-name="619192-covid-une-station-de-ski-fait-une-simulation-pour-montrer-l-efficacite-de-son-pr" width="657" height="425" transform="translate(-1 2)" fill="url(#linear-gradient)"/>
    <path id="question-circle-o" d="M87.364,106.426V122.31a3.06,3.06,0,0,1-3.177,3.177H68.3a3.06,3.06,0,0,1-3.177-3.177V106.426a3.06,3.06,0,0,1,3.177-3.177H84.188a3.06,3.06,0,0,1,3.177,3.177Zm25.415-49.242a25.256,25.256,0,0,1-1.491,8.933,18.14,18.14,0,0,1-4.515,6.849,45.879,45.879,0,0,1-5.164,4.367Q99.47,78.821,95.7,80.909q-3.177,1.788-4.617,2.779a12.412,12.412,0,0,0-2.58,2.385,4.532,4.532,0,0,0-1.144,2.88V92.13a3.06,3.06,0,0,1-3.177,3.177H68.3a3.06,3.06,0,0,1-3.177-3.177V85.378a19,19,0,0,1,1.042-6.4,17.72,17.72,0,0,1,2.385-4.715,16.513,16.513,0,0,1,3.872-3.524A39.7,39.7,0,0,1,76.5,68.2q1.542-.792,4.418-2.084a38.641,38.641,0,0,0,7.447-4.27,5.948,5.948,0,0,0,2.186-4.863q0-4.168-4.321-7.1a16.513,16.513,0,0,0-9.484-2.927,16.161,16.161,0,0,0-9.433,2.681q-2.88,1.987-7.942,8.239a2.929,2.929,0,0,1-2.482,1.19,3.042,3.042,0,0,1-1.885-.6L44.277,50.33a2.841,2.841,0,0,1-1.19-1.987,3.028,3.028,0,0,1,.5-2.283Q55.693,27,78.232,27q12.8,0,23.678,8.887T112.779,57.184ZM76.245,12.708a61.766,61.766,0,0,0-24.67,5.062,62.652,62.652,0,0,0-33.8,33.8,62.632,62.632,0,0,0,0,49.343,62.652,62.652,0,0,0,33.8,33.8,62.646,62.646,0,0,0,49.339,0,62.652,62.652,0,0,0,33.8-33.8,62.646,62.646,0,0,0,0-49.339,62.652,62.652,0,0,0-33.8-33.8A61.692,61.692,0,0,0,76.245,12.708Zm76.245,63.538a74.59,74.59,0,0,1-10.225,38.271,75.893,75.893,0,0,1-27.749,27.749,74.59,74.59,0,0,1-38.271,10.225,74.59,74.59,0,0,1-38.271-10.225,75.893,75.893,0,0,1-27.749-27.749A74.59,74.59,0,0,1,0,76.245,74.59,74.59,0,0,1,10.225,37.974,75.893,75.893,0,0,1,37.974,10.225,74.59,74.59,0,0,1,76.245,0a74.59,74.59,0,0,1,38.271,10.225,75.893,75.893,0,0,1,27.749,27.749A74.59,74.59,0,0,1,152.491,76.245Z" transform="translate(487.612 251.462)" fill="#fff" opacity="0.41"/>
  </g>
</svg>
