<svg id="hobbies" xmlns="http://www.w3.org/2000/svg" width="29.522" height="21.965" viewBox="0 0 29.522 21.965">
  <path id="Tracé_2882" data-name="Tracé 2882" d="M23.684,10.3h5.245a.6.6,0,0,1,.593.593v3.7a.6.6,0,0,1-.593.593H23.684a.6.6,0,0,1-.593-.593V10.888a.594.594,0,0,1,.593-.591ZM3.217,8.512A3.217,3.217,0,1,1,0,11.731,3.217,3.217,0,0,1,3.217,8.512Zm-.444,1.6h.394a.133.133,0,0,1,.132.132V11.76H4.682a.133.133,0,0,1,.132.132v.394a.133.133,0,0,1-.132.132H2.643V10.247a.129.129,0,0,1,.13-.135Zm.444-.867A2.487,2.487,0,1,1,.73,11.731,2.485,2.485,0,0,1,3.217,9.245Zm9.4,9.439a2.607,2.607,0,0,0,4.976,0c.9.807,3.561.973,4.55,1.526a2.621,2.621,0,0,1,.824.7,4.263,4.263,0,0,1,.509.99H6.729a4.263,4.263,0,0,1,.509-.99,2.6,2.6,0,0,1,.824-.7c.992-.555,3.652-.718,4.553-1.526ZM16.025,3.76a.485.485,0,0,1,.276.007V1.285l-2.691.723V5.052a.389.389,0,0,1,0,.053h0c0,.432-.572.863-1.132.959s-1.014-.175-1.014-.608A1.142,1.142,0,0,1,12.481,4.5a1.167,1.167,0,0,1,.569.036V.867h.024L16.861,0V4.168a.456.456,0,0,1,.01.1h0a.954.954,0,0,1-.846.8c-.468.082-.846-.147-.846-.507a.951.951,0,0,1,.846-.8Zm-4.034,9.966a.769.769,0,0,0-.387.1.344.344,0,0,0-.113.13.46.46,0,0,0-.038.207,1.862,1.862,0,0,0,.365.894l0,0h0l.769,1.223a6.473,6.473,0,0,0,1.035,1.357,2.113,2.113,0,0,0,1.475.593,2.167,2.167,0,0,0,1.562-.62,6.865,6.865,0,0,0,1.064-1.449l.865-1.427a1.408,1.408,0,0,0,.185-.762c-.022-.086-.118-.13-.279-.137a.74.74,0,0,0-.1,0,1.079,1.079,0,0,0-.123.007.212.212,0,0,1-.067,0,1.145,1.145,0,0,1-.238-.012l.293-1.189c-2.2.348-3.849-1.288-6.177-.329l.166,1.425a1.524,1.524,0,0,1-.257-.012Zm6.8-.276a.557.557,0,0,1,.406.42,1.733,1.733,0,0,1-.211,1.052h0c0,.007-.007.017-.012.024L18.1,16.39a7.165,7.165,0,0,1-1.139,1.542,2.606,2.606,0,0,1-1.857.738,2.529,2.529,0,0,1-1.768-.709,6.969,6.969,0,0,1-1.11-1.446l-.769-1.223a2.217,2.217,0,0,1-.435-1.117.868.868,0,0,1,.074-.4.781.781,0,0,1,.452-.4A17.462,17.462,0,0,1,11.51,11.3a2.972,2.972,0,0,1,.094-.5,2.471,2.471,0,0,1,1.3-1.413A4.212,4.212,0,0,1,13.992,8.9c.07-.019,1.026-2.282,4.1,1.038a2.353,2.353,0,0,1,.754,1.641l-.048,1.869ZM3.89,21.178a.558.558,0,1,1-1.019.456,13.062,13.062,0,0,1-1.12-4.457c-.01-.137-.017-.3-.024-.476s-.01-.351-.01-.476a.56.56,0,1,1,1.12,0c0,.183,0,.327,0,.435,0,.125.012.271.024.435A12.171,12.171,0,0,0,3.89,21.178ZM6.364,7.688A.559.559,0,1,1,5.571,6.9,14.905,14.905,0,0,1,7.563,5.247,10.147,10.147,0,0,1,9.574,4.14a.557.557,0,1,1,.4,1.038,8.948,8.948,0,0,0-1.78.985A13.827,13.827,0,0,0,6.364,7.688ZM19.9,5.2a.558.558,0,0,1,.456-1.019,13.255,13.255,0,0,1,5.17,4.166.558.558,0,1,1-.9.663A12.176,12.176,0,0,0,22.5,6.8a11.955,11.955,0,0,0-2.6-1.6Zm7.083,11.936a.559.559,0,1,1,1.115.077,13.471,13.471,0,0,1-.358,2.225,13.287,13.287,0,0,1-.73,2.126.559.559,0,0,1-1.023-.452,11.845,11.845,0,0,0,.668-1.946,11.473,11.473,0,0,0,.329-2.03Zm-1.035-5.5,1.442,1a.212.212,0,0,1,.062.06.216.216,0,0,1-.055.3l-1.434.992a.207.207,0,0,1-.137.048.215.215,0,0,1-.216-.216V11.813h0a.206.206,0,0,1,.038-.123.214.214,0,0,1,.3-.053Z" fill="#92acd2" fill-rule="evenodd"/>
</svg>
