<svg xmlns="http://www.w3.org/2000/svg" xmlns:xlink="http://www.w3.org/1999/xlink" width="227.203" height="296.511" viewBox="0 0 227.203 296.511">
  <defs>
    <linearGradient id="linear-gradient" x1="-0.041" y1="0.5" x2="0.685" y2="0.5" gradientUnits="objectBoundingBox">
      <stop offset="0" stop-color="#f16f3c"/>
      <stop offset="1" stop-color="#ff9368"/>
    </linearGradient>
    <filter id="Soustraction_2" x="0" y="0" width="227.203" height="296.511" filterUnits="userSpaceOnUse">
      <feOffset dy="3" input="SourceAlpha"/>
      <feGaussianBlur stdDeviation="3" result="blur"/>
      <feFlood flood-opacity="0.161"/>
      <feComposite operator="in" in2="blur"/>
      <feComposite in="SourceGraphic"/>
    </filter>
  </defs>
  <g transform="matrix(1, 0, 0, 1, 0, 0)" filter="url(#Soustraction_2)">
    <path id="Soustraction_2-2" data-name="Soustraction 2" d="M4644-1538.7v0h0v-57.96L4810.289-1713.1a23.6,23.6,0,0,1,13.6-4.295,23.944,23.944,0,0,1,10.81,2.589,23.784,23.784,0,0,1,8.659,7.536,23.586,23.586,0,0,1,3.932,17.739,23.585,23.585,0,0,1-9.763,15.324Zm0-75.664v0h0v-57.959l171.839-120.323a23.594,23.594,0,0,1,13.6-4.3,23.941,23.941,0,0,1,10.808,2.589,23.784,23.784,0,0,1,8.659,7.536,23.585,23.585,0,0,1,3.933,17.739,23.583,23.583,0,0,1-9.763,15.324Zm0-73.378v0h0v-57.96l95.987-67.211a23.591,23.591,0,0,1,13.6-4.3,23.942,23.942,0,0,1,10.808,2.589,23.788,23.788,0,0,1,8.659,7.536,23.585,23.585,0,0,1,3.933,17.74,23.583,23.583,0,0,1-9.763,15.324Z" transform="translate(-4635 1823.21)" fill="url(#linear-gradient)"/>
  </g>
</svg>
