<svg xmlns="http://www.w3.org/2000/svg" width="94.456" height="85.484" viewBox="0 0 94.456 85.484">
    <g id="Groupe_272" data-name="Groupe 272" transform="translate(-66.877 -66.682)">
      <g id="camera-solid" transform="translate(66.877 66.682)">
        <path id="Tracé_2800" data-name="Tracé 2800" d="M41.6,9.281H31.968l-1.4-3.591A2.64,2.64,0,0,0,28.113,4h-9.98a2.64,2.64,0,0,0-2.469,1.69L14.278,9.281H4.64A2.64,2.64,0,0,0,2,11.921v26.4a2.64,2.64,0,0,0,2.64,2.64H41.6a2.64,2.64,0,0,0,2.64-2.64v-26.4A2.64,2.64,0,0,0,41.6,9.281Zm-34.1,7.433a1.056,1.056,0,0,1,0-2.112h3.168a1.056,1.056,0,0,1,0,2.112ZM23.123,35.684A11.881,11.881,0,1,1,35,23.8,11.881,11.881,0,0,1,23.123,35.684Z" transform="translate(-2 -4)"/>
        <path id="Tracé_2801" data-name="Tracé 2801" d="M11.11,21.32a9.334,9.334,0,0,0,5.426,8.462l1.439-2.3a6.6,6.6,0,1,1,6.891-11.076l1.439-2.323a9.32,9.32,0,0,0-15.2,7.234Z" transform="translate(0.917 -1.438)"/>
      </g>
      <path id="Icon_material-add-circle" data-name="Icon material-add-circle" d="M23.167,3A20.167,20.167,0,1,0,43.333,23.167,20.174,20.174,0,0,0,23.167,3ZM33.25,25.183H25.183V33.25H21.15V25.183H13.083V21.15H21.15V13.083h4.033V21.15H33.25Z" transform="translate(118 108.833)" fill="#275ba7"/>
    </g>
  </svg>
  